<?xml version="1.0" encoding="UTF-8" standalone="no"?>
<svg
   width="2279.3972"
   height="379.93628"
   viewBox="0 0 175.747 29.293999"
   version="1.1"
   id="svg8"
   sodipodi:docname="metzeler.svg"
   xmlns:inkscape="http://www.inkscape.org/namespaces/inkscape"
   xmlns:sodipodi="http://sodipodi.sourceforge.net/DTD/sodipodi-0.dtd"
   xmlns="http://www.w3.org/2000/svg"
   xmlns:svg="http://www.w3.org/2000/svg">
  <defs
     id="defs8" />
  <sodipodi:namedview
     id="namedview8"
     pagecolor="#ffffff"
     bordercolor="#000000"
     borderopacity="0.25"
     inkscape:showpageshadow="2"
     inkscape:pageopacity="0.0"
     inkscape:pagecheckerboard="0"
     inkscape:deskcolor="#d1d1d1" />
  <g
     fill-rule="evenodd"
     clip-rule="evenodd"
     id="g8"
     transform="translate(-8.5040007,-81.731003)">
    <path
       d="m 8.504,93.087 h 6.049 l 4.452,9.288 4.453,-9.288 h 6.049 v 14.431 H 25.675 V 97.152 H 25.64 l -5.162,10.366 H 17.533 L 12.371,97.152 h -0.036 v 10.366 H 8.504 Z m 24.057,0 h 14.244 v 3.349 H 36.694 v 2.312 h 9.579 v 2.988 h -9.579 v 2.313 h 10.342 v 3.469 H 32.561 Z m 15.913,0 H 63.48 v 3.587 h -5.534 v 10.844 H 54.008 V 96.674 h -5.534 z m 15.52,10.962 10.183,-7.453 v -0.041 h -9.739 v -3.468 h 15.753 v 3.468 l -9.384,7.453 v 0.041 h 9.597 v 3.469 H 63.994 Z M 82.836,93.087 H 97.08 v 3.349 H 86.969 v 2.312 h 9.579 v 2.988 h -9.579 v 2.313 h 10.342 v 3.469 H 82.836 Z m 17.83,0 h 4.133 v 10.724 h 8.851 v 3.707 h -12.984 z m 14.359,0.293 h 14.245 v 3.349 h -10.11 v 2.312 h 9.578 v 2.988 h -9.578 v 2.313 h 10.342 v 3.469 h -14.477 z m 34.842,4.464 c 0,0 -0.146,-4.659 -5.861,-4.757 h -11.248 v 14.431 h 4.135 v -4.92 h 3.547 l 3.811,4.92 h 5.178 l -3.42,-4.984 c -10e-4,-0.001 4.202,-0.88 3.858,-4.69 z"
       id="path2" />
    <path
       d="m 142.639,100.182 h -5.746 v -3.508 h 5.746 c 1.242,0 2.219,0.285 2.219,1.754 -0.001,1.283 -1.155,1.754 -2.219,1.754 z"
       fill="#ffffff"
       id="path3" />
    <path
       d="m 169.605,81.731 c 8.088,0 14.646,6.558 14.646,14.647 0,8.089 -6.559,14.647 -14.646,14.647 -8.09,0 -14.646,-6.559 -14.646,-14.647 0,-8.089 6.557,-14.647 14.646,-14.647 z"
       id="path4" />
    <path
       d="m 169.605,82.311 c 7.768,0 14.066,6.298 14.066,14.067 0,7.769 -6.299,14.067 -14.066,14.067 -7.77,0 -14.066,-6.299 -14.066,-14.067 0,-7.769 6.297,-14.067 14.066,-14.067 z"
       fill="#ffffff"
       id="path5" />
    <path
       d="m 175.652,101.197 c 0,0 1.744,-1.967 2.434,-3.596 0,0 0.49,0.75 0.182,2.033 0,0 -0.225,0.354 0.447,0.652 0,0 1.783,1.045 1.172,3.125 0,0 -0.977,0.979 -1.432,1.238 0,0 -1.445,0.541 -1.174,-0.455 0,0 0.066,-0.982 -0.326,-1.369 a 4.21,4.21 0 0 1 -1.303,-1.628 z"
       id="path6" />
    <path
       d="m 178.691,95.206 c 0,0 0.234,-4.517 -7.561,-4.084 -0.189,0.97 -1.027,4.758 -2.619,4.943 -0.867,0.1 -1.719,-0.842 -2.604,-2.882 a 0.195,0.195 0 0 1 0.102,-0.257 c 0.1,-0.042 0.215,0.003 0.258,0.102 0.99,2.285 1.742,2.702 2.199,2.648 1.137,-0.132 2.229,-4.526 2.213,-4.525 0,0 0.928,-4.299 -0.244,-4.788 0,0 -0.439,-0.293 -1.66,1.173 0,0 -2.248,0.83 -3.225,2.149 0,0 -1.531,-0.123 -2.828,0.765 -0.512,0.35 -0.756,0.938 -1.275,1.629 0,0 -2.053,1.124 -2.199,-0.635 0,0 -0.049,-0.928 0.928,-1.808 0,0 1.551,-1.661 1.955,-2.003 0,0 0.781,-0.782 0.049,-1.661 l -0.684,0.293 c 0,0 0.586,0.439 -0.393,1.173 0,0 -6.594,4.543 -1.318,7.084 0,0 -0.928,0.293 -2.346,0.048 0,0 0.246,0.977 4.789,0.245 0,0 1.074,-0.146 0,0.293 0,0 -1.711,0.537 -4.104,0.586 0,0 3.42,0.195 4.494,-0.098 0,0 0.635,-0.049 0.879,0.342 0,0 0.732,-0.586 1.76,-0.538 0,0 1.904,0.538 0.83,2.296 0,0 -1.221,1.611 -1.467,2.102 0,0 -0.391,0.732 -0.195,1.709 0,0 0.098,1.416 -0.098,2.15 0,0 -0.537,0.635 0.195,0.781 0,0 1.828,0.086 2.525,-0.52 0.041,-0.541 0.098,-1.535 0.064,-2.455 l -0.004,-0.1 0.08,-0.061 c 0.633,-0.488 1.635,-1.461 1.635,-1.996 a 0.195,0.195 0 1 1 0.39,0 c 0,0.824 -1.34,1.949 -1.707,2.242 0.023,0.857 -0.023,1.758 -0.062,2.303 0.436,0.064 1.266,0.146 1.721,-0.1 0,0 0.146,-0.635 0,-1.318 0,0 -0.049,-0.977 0.635,-1.465 0,0 0.391,-0.586 0.488,-1.564 0,0 0.684,0.244 1.318,0.195 0,0 0.488,-0.83 0.734,-0.879 0,0 -0.393,1.076 -0.393,1.906 0,0 -0.146,1.025 -0.439,1.514 0,0 -0.879,0.928 -1.221,1.809 0,0 -0.439,0.391 -0.146,0.781 0,0 1.318,0.293 2.295,0 0,0 2.033,-2.014 2.277,-3.137 0,0 1.682,-1.26 3.732,-5.413 0,0 0.781,0.538 0.977,1.368 0.003,0.003 0.198,-1.659 -0.73,-2.342 z"
       id="path7" />
    <path
       d="m 163.742,91.538 a 0.347,0.347 0 0 0 -0.346,0.345 0.347,0.347 0 0 0 0.692,0 0.345,0.345 0 0 0 -0.346,-0.345 z"
       fill="#ffffff"
       id="path8" />
  </g>
</svg>
