<?xml version="1.0" encoding="UTF-8" standalone="no"?>
<svg
   width="2279.4102"
   height="593.56128"
   viewBox="0 0 175.74799 45.764999"
   version="1.1"
   id="svg3"
   sodipodi:docname="nolan.svg"
   xmlns:inkscape="http://www.inkscape.org/namespaces/inkscape"
   xmlns:sodipodi="http://sodipodi.sourceforge.net/DTD/sodipodi-0.dtd"
   xmlns="http://www.w3.org/2000/svg"
   xmlns:svg="http://www.w3.org/2000/svg">
  <defs
     id="defs3" />
  <sodipodi:namedview
     id="namedview3"
     pagecolor="#ffffff"
     bordercolor="#000000"
     borderopacity="0.25"
     inkscape:showpageshadow="2"
     inkscape:pageopacity="0.0"
     inkscape:pagecheckerboard="0"
     inkscape:deskcolor="#d1d1d1" />
  <g
     fill-rule="evenodd"
     clip-rule="evenodd"
     id="g3"
     transform="translate(-8.5040007,-78.961998)">
    <path
       d="M 8.504,106.771 21.534,79.757 H 39.49 l -0.635,14.46 7.627,-14.46 H 55.54 L 42.827,106.93 h -14.46 l 1.271,-14.937 -8.104,14.778 H 8.504 Z M 52.679,96.76 59.989,81.982 c 1.589,-3.178 5.403,-2.86 5.403,-2.86 h 17.321 c 5.244,-0.318 6.038,3.654 6.038,3.654 0.318,2.542 -1.112,4.767 -1.112,4.767 l -7.15,15.732 c -2.384,4.131 -5.721,3.654 -5.721,3.654 H 54.745 c -4.449,-0.477 -4.291,-4.607 -4.291,-4.607 0.796,-3.179 2.225,-5.562 2.225,-5.562 z m 13.666,3.654 h 4.926 c 0,0 1.112,0.16 1.589,-1.111 l 5.721,-12.872 c 0,0 0.954,-1.43 -0.477,-1.271 h -3.973 c 0,0 -1.907,-0.318 -2.542,0.953 l -6.674,12.872 c 0,-0.001 -0.954,1.429 1.43,1.429 z m 70.872,6.357 13.029,-27.173 h 17.957 l -0.637,14.46 7.629,-14.46 h 9.057 l -12.713,27.173 H 157.08 l 1.272,-14.938 -8.106,14.938 z m -13.824,0.159 3.494,-7.945 h -7.467 l -3.656,7.311 -0.316,0.635 h -13.666 l 4.926,-10.012 7.309,-14.777 c 1.748,-3.337 5.562,-2.861 5.562,-2.861 h 17.32 c 5.086,-0.317 5.879,3.496 5.879,3.496 0.479,2.702 -1.111,4.767 -1.111,4.767 l -6.992,15.732 -1.748,3.654 z m -1.748,-13.189 h 7.785 l 3.338,-7.31 c 0,0 0.795,-1.271 -0.477,-1.271 h -3.973 c 0,0 -1.908,-0.318 -2.701,0.953 l -3.814,7.628 z"
       id="path2" />
    <path
       d="m 97.172,78.962 h 12.871 l -15.254,33.37 h 74.209 l -2.861,6.197 H 78.898 Z m -19.386,42.587 h 86.921 l -1.43,3.178 H 76.356 Z"
       id="path3" />
  </g>
</svg>
